<svg id="visual" viewBox="0 0 900 600" width="900" height="600" xmlns="http://www.w3.org/2000/svg" xmlns:xlink="http://www.w3.org/1999/xlink" version="1.1"><g stroke-width="1" stroke-linejoin="bevel"><path d="M431 301L408.7 319L456 366Z" fill="#336b6c" stroke="#336b6c"></path><path d="M408.7 319L388.7 348L456 366Z" fill="#004041" stroke="#004041"></path><path d="M456 366L506.3 323L431 301Z" fill="#2a6263" stroke="#2a6263"></path><path d="M456 366L509.3 341L506.3 323Z" fill="#21595a" stroke="#21595a"></path><path d="M388.7 348L414.7 417L456 366Z" fill="#457d7e" stroke="#457d7e"></path><path d="M456 366L526.3 423L509.3 341Z" fill="#336b6c" stroke="#336b6c"></path><path d="M532.3 265L430 240L431 301Z" fill="#569091" stroke="#569091"></path><path d="M431 301L430 240L408.7 319Z" fill="#336b6c" stroke="#336b6c"></path><path d="M408.7 319L341.4 306L388.7 348Z" fill="#457d7e" stroke="#457d7e"></path><path d="M414.7 417L446 434L456 366Z" fill="#4d8787" stroke="#4d8787"></path><path d="M430 240L341.4 306L408.7 319Z" fill="#2a6263" stroke="#2a6263"></path><path d="M388.7 348L336.4 440L414.7 417Z" fill="#0c4849" stroke="#0c4849"></path><path d="M341.4 306L334.4 349L388.7 348Z" fill="#3c7475" stroke="#3c7475"></path><path d="M509.3 341L550.6 316L506.3 323Z" fill="#175152" stroke="#175152"></path><path d="M506.3 323L532.3 265L431 301Z" fill="#175152" stroke="#175152"></path><path d="M567.6 351L550.6 316L509.3 341Z" fill="#4d8787" stroke="#4d8787"></path><path d="M550.6 316L532.3 265L506.3 323Z" fill="#3c7475" stroke="#3c7475"></path><path d="M446 434L526.3 423L456 366Z" fill="#21595a" stroke="#21595a"></path><path d="M526.3 423L567.6 351L509.3 341Z" fill="#457d7e" stroke="#457d7e"></path><path d="M550.6 316L577.6 235L532.3 265Z" fill="#21595a" stroke="#21595a"></path><path d="M441 171L378.7 201L430 240Z" fill="#21595a" stroke="#21595a"></path><path d="M430 240L359.7 210L341.4 306Z" fill="#175152" stroke="#175152"></path><path d="M334.4 349L336.4 440L388.7 348Z" fill="#4d8787" stroke="#4d8787"></path><path d="M403.7 510L446 499L446 434Z" fill="#5f9a9a" stroke="#5f9a9a"></path><path d="M378.7 201L359.7 210L430 240Z" fill="#2a6263" stroke="#2a6263"></path><path d="M526.3 423L590.6 399L567.6 351Z" fill="#2a6263" stroke="#2a6263"></path><path d="M612.9 256L577.6 235L550.6 316Z" fill="#457d7e" stroke="#457d7e"></path><path d="M519.3 159L441 171L430 240Z" fill="#175152" stroke="#175152"></path><path d="M306.4 186L285.1 214L359.7 210Z" fill="#2a6263" stroke="#2a6263"></path><path d="M403.7 510L446 434L414.7 417Z" fill="#569091" stroke="#569091"></path><path d="M446 434L446 499L526.3 423Z" fill="#21595a" stroke="#21595a"></path><path d="M526.3 423L569.6 473L590.6 399Z" fill="#3c7475" stroke="#3c7475"></path><path d="M273.1 367L288.1 402L334.4 349Z" fill="#336b6c" stroke="#336b6c"></path><path d="M334.4 349L288.1 402L336.4 440Z" fill="#4d8787" stroke="#4d8787"></path><path d="M273.1 367L334.4 349L341.4 306Z" fill="#3c7475" stroke="#3c7475"></path><path d="M359.7 210L294.4 254L341.4 306Z" fill="#3c7475" stroke="#3c7475"></path><path d="M236.1 310L273.1 367L341.4 306Z" fill="#336b6c" stroke="#336b6c"></path><path d="M612.9 256L550.6 316L645.9 289Z" fill="#569091" stroke="#569091"></path><path d="M532.3 265L519.3 159L430 240Z" fill="#569091" stroke="#569091"></path><path d="M332.4 499L403.7 510L336.4 440Z" fill="#3c7475" stroke="#3c7475"></path><path d="M336.4 440L403.7 510L414.7 417Z" fill="#0c4849" stroke="#0c4849"></path><path d="M489.3 546L546.3 486L446 499Z" fill="#569091" stroke="#569091"></path><path d="M446 499L546.3 486L526.3 423Z" fill="#0c4849" stroke="#0c4849"></path><path d="M546.3 486L569.6 473L526.3 423Z" fill="#4d8787" stroke="#4d8787"></path><path d="M645.9 289L550.6 316L567.6 351Z" fill="#569091" stroke="#569091"></path><path d="M556.6 145L519.3 159L577.6 235Z" fill="#2a6263" stroke="#2a6263"></path><path d="M577.6 235L519.3 159L532.3 265Z" fill="#4d8787" stroke="#4d8787"></path><path d="M279.1 491L332.4 499L336.4 440Z" fill="#3c7475" stroke="#3c7475"></path><path d="M359.7 210L285.1 214L294.4 254Z" fill="#3c7475" stroke="#3c7475"></path><path d="M294.4 254L236.1 310L341.4 306Z" fill="#4d8787" stroke="#4d8787"></path><path d="M306.4 186L359.7 210L378.7 201Z" fill="#5f9a9a" stroke="#5f9a9a"></path><path d="M346.4 106L306.4 186L378.7 201Z" fill="#569091" stroke="#569091"></path><path d="M420 135L378.7 201L441 171Z" fill="#569091" stroke="#569091"></path><path d="M486.3 89L420 135L441 171Z" fill="#004041" stroke="#004041"></path><path d="M212.9 272L236.1 310L294.4 254Z" fill="#3c7475" stroke="#3c7475"></path><path d="M192.9 459L279.1 491L288.1 402Z" fill="#0c4849" stroke="#0c4849"></path><path d="M288.1 402L279.1 491L336.4 440Z" fill="#0c4849" stroke="#0c4849"></path><path d="M332.4 499L353.4 525L403.7 510Z" fill="#2a6263" stroke="#2a6263"></path><path d="M479 555L489.3 546L446 499Z" fill="#336b6c" stroke="#336b6c"></path><path d="M660.9 390L645.9 289L567.6 351Z" fill="#336b6c" stroke="#336b6c"></path><path d="M597.6 156L556.6 145L577.6 235Z" fill="#175152" stroke="#175152"></path><path d="M660.9 390L567.6 351L590.6 399Z" fill="#4d8787" stroke="#4d8787"></path><path d="M479 555L446 499L403.7 510Z" fill="#5f9a9a" stroke="#5f9a9a"></path><path d="M604.6 523L620.9 501L569.6 473Z" fill="#3c7475" stroke="#3c7475"></path><path d="M597.6 156L577.6 235L640.9 179Z" fill="#2a6263" stroke="#2a6263"></path><path d="M519.3 159L486.3 89L441 171Z" fill="#0c4849" stroke="#0c4849"></path><path d="M433 600L479 555L403.7 510Z" fill="#21595a" stroke="#21595a"></path><path d="M192.9 459L288.1 402L273.1 367Z" fill="#2a6263" stroke="#2a6263"></path><path d="M332.4 499L323.4 600L353.4 525Z" fill="#4d8787" stroke="#4d8787"></path><path d="M665.9 443L590.6 399L569.6 473Z" fill="#3c7475" stroke="#3c7475"></path><path d="M665.9 443L660.9 390L590.6 399Z" fill="#004041" stroke="#004041"></path><path d="M285.1 214L212.9 272L294.4 254Z" fill="#569091" stroke="#569091"></path><path d="M236.1 310L175.9 372L273.1 367Z" fill="#175152" stroke="#175152"></path><path d="M196.9 255L212.9 272L285.1 214Z" fill="#175152" stroke="#175152"></path><path d="M323.4 600L361.7 560L353.4 525Z" fill="#569091" stroke="#569091"></path><path d="M353.4 525L361.7 560L403.7 510Z" fill="#457d7e" stroke="#457d7e"></path><path d="M640.9 179L577.6 235L612.9 256Z" fill="#4d8787" stroke="#4d8787"></path><path d="M604.6 523L546.3 486L573.6 600Z" fill="#21595a" stroke="#21595a"></path><path d="M604.6 523L569.6 473L546.3 486Z" fill="#004041" stroke="#004041"></path><path d="M370.7 95L346.4 106L420 135Z" fill="#0c4849" stroke="#0c4849"></path><path d="M420 135L346.4 106L378.7 201Z" fill="#004041" stroke="#004041"></path><path d="M306.4 186L261.1 154L285.1 214Z" fill="#3c7475" stroke="#3c7475"></path><path d="M451 66L370.7 95L420 135Z" fill="#004041" stroke="#004041"></path><path d="M486.3 89L519.3 159L556.6 145Z" fill="#2a6263" stroke="#2a6263"></path><path d="M573.6 600L546.3 486L489.3 546Z" fill="#457d7e" stroke="#457d7e"></path><path d="M546.3 50L486.3 89L556.6 145Z" fill="#457d7e" stroke="#457d7e"></path><path d="M620.9 501L665.9 443L569.6 473Z" fill="#21595a" stroke="#21595a"></path><path d="M675.1 510L665.9 443L620.9 501Z" fill="#4d8787" stroke="#4d8787"></path><path d="M693.1 211L612.9 256L645.9 289Z" fill="#5f9a9a" stroke="#5f9a9a"></path><path d="M693.1 211L640.9 179L612.9 256Z" fill="#2a6263" stroke="#2a6263"></path><path d="M556.6 47L546.3 50L556.6 145Z" fill="#457d7e" stroke="#457d7e"></path><path d="M346.4 106L261.1 154L306.4 186Z" fill="#004041" stroke="#004041"></path><path d="M213.9 184L196.9 255L285.1 214Z" fill="#175152" stroke="#175152"></path><path d="M152.6 306L175.9 372L236.1 310Z" fill="#5f9a9a" stroke="#5f9a9a"></path><path d="M409.7 600L433 600L403.7 510Z" fill="#2a6263" stroke="#2a6263"></path><path d="M479 555L484.3 600L489.3 546Z" fill="#175152" stroke="#175152"></path><path d="M152.6 306L236.1 310L212.9 272Z" fill="#457d7e" stroke="#457d7e"></path><path d="M361.7 560L409.7 600L403.7 510Z" fill="#457d7e" stroke="#457d7e"></path><path d="M433 600L484.3 600L479 555Z" fill="#336b6c" stroke="#336b6c"></path><path d="M464 0L451 66L485.3 0Z" fill="#175152" stroke="#175152"></path><path d="M486.3 89L451 66L420 135Z" fill="#3c7475" stroke="#3c7475"></path><path d="M261.1 154L213.9 184L285.1 214Z" fill="#569091" stroke="#569091"></path><path d="M175.9 372L192.9 459L273.1 367Z" fill="#2a6263" stroke="#2a6263"></path><path d="M279.1 491L323.4 600L332.4 499Z" fill="#3c7475" stroke="#3c7475"></path><path d="M361.7 560L323.4 600L409.7 600Z" fill="#004041" stroke="#004041"></path><path d="M734.1 269L693.1 211L645.9 289Z" fill="#21595a" stroke="#21595a"></path><path d="M734.1 328L645.9 289L660.9 390Z" fill="#2a6263" stroke="#2a6263"></path><path d="M370.7 95L305.4 81L346.4 106Z" fill="#3c7475" stroke="#3c7475"></path><path d="M346.4 106L305.4 81L261.1 154Z" fill="#21595a" stroke="#21595a"></path><path d="M261.1 154L242.1 126L213.9 184Z" fill="#175152" stroke="#175152"></path><path d="M391.7 40L305.4 81L370.7 95Z" fill="#175152" stroke="#175152"></path><path d="M175.9 372L170.9 436L192.9 459Z" fill="#0c4849" stroke="#0c4849"></path><path d="M305.4 81L242.1 126L261.1 154Z" fill="#457d7e" stroke="#457d7e"></path><path d="M149.6 231L152.6 306L196.9 255Z" fill="#3c7475" stroke="#3c7475"></path><path d="M196.9 255L152.6 306L212.9 272Z" fill="#0c4849" stroke="#0c4849"></path><path d="M109.6 376L130.6 446L170.9 436Z" fill="#336b6c" stroke="#336b6c"></path><path d="M149.6 231L196.9 255L155.6 207Z" fill="#5f9a9a" stroke="#5f9a9a"></path><path d="M189.9 528L279.1 491L192.9 459Z" fill="#5f9a9a" stroke="#5f9a9a"></path><path d="M225.1 571L323.4 600L279.1 491Z" fill="#3c7475" stroke="#3c7475"></path><path d="M667.9 530L675.1 510L620.9 501Z" fill="#0c4849" stroke="#0c4849"></path><path d="M726.1 406L734.1 328L660.9 390Z" fill="#3c7475" stroke="#3c7475"></path><path d="M667.9 530L620.9 501L604.6 523Z" fill="#004041" stroke="#004041"></path><path d="M726.1 406L660.9 390L665.9 443Z" fill="#2a6263" stroke="#2a6263"></path><path d="M764.4 428L726.1 406L665.9 443Z" fill="#004041" stroke="#004041"></path><path d="M484.3 600L573.6 600L489.3 546Z" fill="#3c7475" stroke="#3c7475"></path><path d="M451 66L391.7 40L370.7 95Z" fill="#457d7e" stroke="#457d7e"></path><path d="M652.9 600L667.9 530L604.6 523Z" fill="#21595a" stroke="#21595a"></path><path d="M764.4 428L759.4 368L726.1 406Z" fill="#21595a" stroke="#21595a"></path><path d="M739.4 295L734.1 269L645.9 289Z" fill="#175152" stroke="#175152"></path><path d="M811.7 332L739.4 295L734.1 328Z" fill="#175152" stroke="#175152"></path><path d="M734.1 328L739.4 295L645.9 289Z" fill="#175152" stroke="#175152"></path><path d="M657.9 122L597.6 156L640.9 179Z" fill="#0c4849" stroke="#0c4849"></path><path d="M556.6 47L556.6 145L597.6 156Z" fill="#457d7e" stroke="#457d7e"></path><path d="M451 66L464 0L391.7 40Z" fill="#4d8787" stroke="#4d8787"></path><path d="M713.1 167L657.9 122L640.9 179Z" fill="#21595a" stroke="#21595a"></path><path d="M713.1 167L640.9 179L693.1 211Z" fill="#4d8787" stroke="#4d8787"></path><path d="M155.6 207L196.9 255L213.9 184Z" fill="#336b6c" stroke="#336b6c"></path><path d="M657.9 122L556.6 47L597.6 156Z" fill="#21595a" stroke="#21595a"></path><path d="M485.3 0L451 66L486.3 89Z" fill="#0c4849" stroke="#0c4849"></path><path d="M164.9 124L155.6 207L213.9 184Z" fill="#5f9a9a" stroke="#5f9a9a"></path><path d="M140.6 505L189.9 528L192.9 459Z" fill="#004041" stroke="#004041"></path><path d="M189.9 528L225.1 571L279.1 491Z" fill="#457d7e" stroke="#457d7e"></path><path d="M764.4 221L713.1 167L693.1 211Z" fill="#004041" stroke="#004041"></path><path d="M726.1 406L759.4 368L734.1 328Z" fill="#336b6c" stroke="#336b6c"></path><path d="M739.4 295L764.4 221L734.1 269Z" fill="#569091" stroke="#569091"></path><path d="M734.1 269L764.4 221L693.1 211Z" fill="#21595a" stroke="#21595a"></path><path d="M764.4 428L665.9 443L675.1 510Z" fill="#004041" stroke="#004041"></path><path d="M109.6 376L170.9 436L175.9 372Z" fill="#2a6263" stroke="#2a6263"></path><path d="M170.9 436L130.6 446L192.9 459Z" fill="#457d7e" stroke="#457d7e"></path><path d="M109.6 376L175.9 372L152.6 306Z" fill="#175152" stroke="#175152"></path><path d="M65.3 390L109.6 376L47.3 302Z" fill="#0c4849" stroke="#0c4849"></path><path d="M109.6 376L152.6 306L47.3 302Z" fill="#569091" stroke="#569091"></path><path d="M485.3 0L486.3 89L546.3 50Z" fill="#2a6263" stroke="#2a6263"></path><path d="M305.4 0L284.1 36L305.4 81Z" fill="#4d8787" stroke="#4d8787"></path><path d="M652.9 600L695.1 554L667.9 530Z" fill="#3c7475" stroke="#3c7475"></path><path d="M667.9 530L695.1 554L675.1 510Z" fill="#336b6c" stroke="#336b6c"></path><path d="M223.9 600L225.1 571L122.6 553Z" fill="#569091" stroke="#569091"></path><path d="M223.9 600L232.1 600L225.1 571Z" fill="#2a6263" stroke="#2a6263"></path><path d="M225.1 571L232.1 600L323.4 600Z" fill="#336b6c" stroke="#336b6c"></path><path d="M362.7 0L305.4 81L391.7 40Z" fill="#21595a" stroke="#21595a"></path><path d="M305.4 81L284.1 36L242.1 126Z" fill="#3c7475" stroke="#3c7475"></path><path d="M242.1 126L164.9 124L213.9 184Z" fill="#3c7475" stroke="#3c7475"></path><path d="M779.4 507L764.4 428L675.1 510Z" fill="#336b6c" stroke="#336b6c"></path><path d="M574.6 0L485.3 0L546.3 50Z" fill="#569091" stroke="#569091"></path><path d="M573.6 600L652.9 600L604.6 523Z" fill="#457d7e" stroke="#457d7e"></path><path d="M122.6 553L225.1 571L189.9 528Z" fill="#004041" stroke="#004041"></path><path d="M464 0L362.7 0L391.7 40Z" fill="#175152" stroke="#175152"></path><path d="M811.7 332L734.1 328L759.4 368Z" fill="#336b6c" stroke="#336b6c"></path><path d="M811.7 332L764.4 221L739.4 295Z" fill="#336b6c" stroke="#336b6c"></path><path d="M130.6 446L140.6 505L192.9 459Z" fill="#336b6c" stroke="#336b6c"></path><path d="M84.3 447L140.6 505L130.6 446Z" fill="#3c7475" stroke="#3c7475"></path><path d="M172.9 28L164.9 124L242.1 126Z" fill="#2a6263" stroke="#2a6263"></path><path d="M155.6 207L63.3 220L149.6 231Z" fill="#4d8787" stroke="#4d8787"></path><path d="M793.4 147L724.1 115L713.1 167Z" fill="#336b6c" stroke="#336b6c"></path><path d="M713.1 167L724.1 115L657.9 122Z" fill="#336b6c" stroke="#336b6c"></path><path d="M626.9 0L574.6 0L556.6 47Z" fill="#2a6263" stroke="#2a6263"></path><path d="M556.6 47L574.6 0L546.3 50Z" fill="#4d8787" stroke="#4d8787"></path><path d="M362.7 0L305.4 0L305.4 81Z" fill="#569091" stroke="#569091"></path><path d="M137.6 61L119.6 115L164.9 124Z" fill="#2a6263" stroke="#2a6263"></path><path d="M671.9 58L556.6 47L657.9 122Z" fill="#569091" stroke="#569091"></path><path d="M724.1 115L671.9 58L657.9 122Z" fill="#4d8787" stroke="#4d8787"></path><path d="M842.7 380L811.7 332L759.4 368Z" fill="#175152" stroke="#175152"></path><path d="M764.4 221L793.4 147L713.1 167Z" fill="#4d8787" stroke="#4d8787"></path><path d="M65.3 390L84.3 447L109.6 376Z" fill="#336b6c" stroke="#336b6c"></path><path d="M109.6 376L84.3 447L130.6 446Z" fill="#5f9a9a" stroke="#5f9a9a"></path><path d="M140.6 505L122.6 553L189.9 528Z" fill="#5f9a9a" stroke="#5f9a9a"></path><path d="M47.3 302L152.6 306L149.6 231Z" fill="#0c4849" stroke="#0c4849"></path><path d="M811.7 332L797.4 205L764.4 221Z" fill="#3c7475" stroke="#3c7475"></path><path d="M695.1 554L779.4 507L675.1 510Z" fill="#569091" stroke="#569091"></path><path d="M764.4 428L810.7 422L759.4 368Z" fill="#175152" stroke="#175152"></path><path d="M783.4 519L779.4 507L695.1 554Z" fill="#2a6263" stroke="#2a6263"></path><path d="M803.7 491L810.7 422L764.4 428Z" fill="#4d8787" stroke="#4d8787"></path><path d="M703.1 0L626.9 0L671.9 58Z" fill="#004041" stroke="#004041"></path><path d="M671.9 58L626.9 0L556.6 47Z" fill="#457d7e" stroke="#457d7e"></path><path d="M50.3 553L122.6 553L140.6 505Z" fill="#3c7475" stroke="#3c7475"></path><path d="M172.9 28L242.1 126L284.1 36Z" fill="#0c4849" stroke="#0c4849"></path><path d="M164.9 124L119.6 115L155.6 207Z" fill="#457d7e" stroke="#457d7e"></path><path d="M727.1 600L783.4 519L695.1 554Z" fill="#2a6263" stroke="#2a6263"></path><path d="M779.4 507L803.7 491L764.4 428Z" fill="#4d8787" stroke="#4d8787"></path><path d="M652.9 600L727.1 600L695.1 554Z" fill="#5f9a9a" stroke="#5f9a9a"></path><path d="M305.4 0L237.1 0L284.1 36Z" fill="#2a6263" stroke="#2a6263"></path><path d="M119.6 115L63.3 220L155.6 207Z" fill="#004041" stroke="#004041"></path><path d="M63.3 220L47.3 302L149.6 231Z" fill="#457d7e" stroke="#457d7e"></path><path d="M803.7 539L803.7 491L783.4 519Z" fill="#175152" stroke="#175152"></path><path d="M783.4 519L803.7 491L779.4 507Z" fill="#4d8787" stroke="#4d8787"></path><path d="M797.4 205L793.4 147L764.4 221Z" fill="#457d7e" stroke="#457d7e"></path><path d="M724.1 115L732.1 37L671.9 58Z" fill="#4d8787" stroke="#4d8787"></path><path d="M832.7 207L793.4 147L797.4 205Z" fill="#175152" stroke="#175152"></path><path d="M65.3 390L47.3 415L84.3 447Z" fill="#21595a" stroke="#21595a"></path><path d="M71.3 600L114.6 600L122.6 553Z" fill="#3c7475" stroke="#3c7475"></path><path d="M0 415L47.3 415L65.3 390Z" fill="#5f9a9a" stroke="#5f9a9a"></path><path d="M810.7 422L842.7 380L759.4 368Z" fill="#457d7e" stroke="#457d7e"></path><path d="M811.7 332L832.7 207L797.4 205Z" fill="#4d8787" stroke="#4d8787"></path><path d="M900 372L842.7 380L900 407Z" fill="#175152" stroke="#175152"></path><path d="M237.1 0L172.9 28L284.1 36Z" fill="#457d7e" stroke="#457d7e"></path><path d="M172.9 28L137.6 61L164.9 124Z" fill="#2a6263" stroke="#2a6263"></path><path d="M66.3 107L34.3 210L63.3 220Z" fill="#175152" stroke="#175152"></path><path d="M844.7 211L832.7 207L811.7 332Z" fill="#175152" stroke="#175152"></path><path d="M791.4 600L803.7 539L783.4 519Z" fill="#5f9a9a" stroke="#5f9a9a"></path><path d="M900 372L900 328L842.7 380Z" fill="#3c7475" stroke="#3c7475"></path><path d="M794.4 46L732.1 37L724.1 115Z" fill="#457d7e" stroke="#457d7e"></path><path d="M819.7 125L724.1 115L793.4 147Z" fill="#5f9a9a" stroke="#5f9a9a"></path><path d="M50.3 553L140.6 505L84.3 447Z" fill="#457d7e" stroke="#457d7e"></path><path d="M122.6 553L114.6 600L223.9 600Z" fill="#457d7e" stroke="#457d7e"></path><path d="M900 268L844.7 211L811.7 332Z" fill="#4d8787" stroke="#4d8787"></path><path d="M832.7 207L819.7 125L793.4 147Z" fill="#0c4849" stroke="#0c4849"></path><path d="M63.3 220L0 268L47.3 302Z" fill="#4d8787" stroke="#4d8787"></path><path d="M47.3 302L0 331L65.3 390Z" fill="#4d8787" stroke="#4d8787"></path><path d="M66.3 107L63.3 220L119.6 115Z" fill="#336b6c" stroke="#336b6c"></path><path d="M732.1 37L703.1 0L671.9 58Z" fill="#569091" stroke="#569091"></path><path d="M172.9 28L159.6 0L137.6 61Z" fill="#569091" stroke="#569091"></path><path d="M137.6 61L66.3 107L119.6 115Z" fill="#569091" stroke="#569091"></path><path d="M237.1 0L170.9 0L172.9 28Z" fill="#004041" stroke="#004041"></path><path d="M900 158L819.7 125L832.7 207Z" fill="#2a6263" stroke="#2a6263"></path><path d="M732.1 37L764.4 0L703.1 0Z" fill="#21595a" stroke="#21595a"></path><path d="M170.9 0L159.6 0L172.9 28Z" fill="#2a6263" stroke="#2a6263"></path><path d="M47.3 47L66.3 107L137.6 61Z" fill="#569091" stroke="#569091"></path><path d="M0 268L0 331L47.3 302Z" fill="#0c4849" stroke="#0c4849"></path><path d="M0 466L50.3 553L84.3 447Z" fill="#457d7e" stroke="#457d7e"></path><path d="M727.1 600L791.4 600L783.4 519Z" fill="#004041" stroke="#004041"></path><path d="M842.7 380L810.7 422L900 407Z" fill="#0c4849" stroke="#0c4849"></path><path d="M0 209L0 268L34.3 210Z" fill="#3c7475" stroke="#3c7475"></path><path d="M34.3 210L0 268L63.3 220Z" fill="#175152" stroke="#175152"></path><path d="M0 466L84.3 447L47.3 415Z" fill="#0c4849" stroke="#0c4849"></path><path d="M0 331L0 415L65.3 390Z" fill="#457d7e" stroke="#457d7e"></path><path d="M791.4 600L802.7 600L803.7 539Z" fill="#0c4849" stroke="#0c4849"></path><path d="M50.3 553L71.3 600L122.6 553Z" fill="#0c4849" stroke="#0c4849"></path><path d="M819.7 125L794.4 46L724.1 115Z" fill="#457d7e" stroke="#457d7e"></path><path d="M0 205L0 209L34.3 210Z" fill="#2a6263" stroke="#2a6263"></path><path d="M0 112L0 205L34.3 210Z" fill="#569091" stroke="#569091"></path><path d="M0 415L0 466L47.3 415Z" fill="#21595a" stroke="#21595a"></path><path d="M50.3 553L0 600L71.3 600Z" fill="#3c7475" stroke="#3c7475"></path><path d="M810.7 422L900 463L900 407Z" fill="#0c4849" stroke="#0c4849"></path><path d="M842.7 380L900 328L811.7 332Z" fill="#569091" stroke="#569091"></path><path d="M844.7 211L900 158L832.7 207Z" fill="#004041" stroke="#004041"></path><path d="M819.7 125L836.7 33L794.4 46Z" fill="#21595a" stroke="#21595a"></path><path d="M810.7 422L803.7 491L900 463Z" fill="#336b6c" stroke="#336b6c"></path><path d="M900 328L900 268L811.7 332Z" fill="#457d7e" stroke="#457d7e"></path><path d="M900 463L803.7 491L900 541Z" fill="#175152" stroke="#175152"></path><path d="M794.4 46L764.4 0L732.1 37Z" fill="#2a6263" stroke="#2a6263"></path><path d="M900 541L803.7 491L803.7 539Z" fill="#457d7e" stroke="#457d7e"></path><path d="M0 466L0 528L50.3 553Z" fill="#3c7475" stroke="#3c7475"></path><path d="M84.3 0L47.3 47L137.6 61Z" fill="#336b6c" stroke="#336b6c"></path><path d="M66.3 107L0 112L34.3 210Z" fill="#2a6263" stroke="#2a6263"></path><path d="M159.6 0L84.3 0L137.6 61Z" fill="#0c4849" stroke="#0c4849"></path><path d="M900 268L900 158L844.7 211Z" fill="#3c7475" stroke="#3c7475"></path><path d="M794.4 46L829.7 0L764.4 0Z" fill="#569091" stroke="#569091"></path><path d="M47.3 47L0 112L66.3 107Z" fill="#5f9a9a" stroke="#5f9a9a"></path><path d="M900 68L836.7 33L819.7 125Z" fill="#336b6c" stroke="#336b6c"></path><path d="M900 158L900 140L819.7 125Z" fill="#0c4849" stroke="#0c4849"></path><path d="M802.7 600L900 541L803.7 539Z" fill="#004041" stroke="#004041"></path><path d="M0 528L0 600L50.3 553Z" fill="#569091" stroke="#569091"></path><path d="M836.7 33L829.7 0L794.4 46Z" fill="#4d8787" stroke="#4d8787"></path><path d="M900 0L829.7 0L836.7 33Z" fill="#2a6263" stroke="#2a6263"></path><path d="M802.7 600L900 600L900 541Z" fill="#0c4849" stroke="#0c4849"></path><path d="M900 140L900 68L819.7 125Z" fill="#4d8787" stroke="#4d8787"></path><path d="M0 0L0 31L47.3 47Z" fill="#5f9a9a" stroke="#5f9a9a"></path><path d="M47.3 47L0 31L0 112Z" fill="#004041" stroke="#004041"></path><path d="M84.3 0L0 0L47.3 47Z" fill="#004041" stroke="#004041"></path><path d="M900 68L900 0L836.7 33Z" fill="#2a6263" stroke="#2a6263"></path></g></svg>